<svg width="100" height="100" viewBox="0 0 100 100" fill="none" xmlns="http://www.w3.org/2000/svg">
<circle cx="50" cy="50" r="50" fill="#22A576"/>
<path fill-rule="evenodd" clip-rule="evenodd" d="M69.8041 44.9578C70.7318 43.808 71.4364 42.5946 71.7678 41.6477C72.3564 39.9659 72.1882 37.275 71.2632 35.1727C70.3801 33.1656 68.774 31.2205 66.8905 29.6227C66.0279 28.891 64.7781 27.9603 63.3292 26.8814C59.4497 23.9925 54.143 20.0408 51.0206 16L49.1706 16V66.4217C46.245 64.2186 41.3307 64.3142 37.0522 66.9411C31.8558 70.1316 29.5648 75.8476 31.9352 79.7082C34.3055 83.5688 40.4395 84.112 45.6358 80.9216C49.6365 78.4652 51.9151 74.5118 51.67 71.0607V39.2436C54.9334 40.582 62.0567 43.7703 65.1246 46.1046C68.9928 49.0478 68.9087 51.1501 68.4882 53.4205C68.0678 55.691 66.5541 57.3728 65.1246 58.6342C63.9809 59.6432 61.0041 61.6895 59.6587 62.5864L60.4996 63.4273C61.9291 62.6145 65.2087 60.686 66.8905 59.4751C68.9928 57.9614 71.1791 55.1023 71.7678 53.4205C72.3564 51.7387 72.4405 48.7955 71.2632 46.9455C70.7904 46.2025 70.304 45.5545 69.8041 44.9578ZM51.67 31.1943C56.5494 34.5516 66.409 41.4185 67.4791 42.4887L67.4806 42.4902C67.6866 42.6962 67.8907 42.9003 68.0928 43.1048C68.2505 42.7013 68.3804 42.2298 68.4882 41.6477C68.9087 39.3773 68.9928 37.275 65.1246 34.3318C62.2444 32.1404 55.2273 29.0505 51.67 27.5708V31.1943Z" fill="white"/>
</svg>
