<svg width="103" height="22" viewBox="0 0 103 22" fill="none" xmlns="http://www.w3.org/2000/svg">
<path d="M0.81108 21V4.63636H5.13636V7.52344H5.32812C5.66903 6.56463 6.23722 5.80824 7.03267 5.25426C7.82812 4.70028 8.77983 4.4233 9.88778 4.4233C11.0099 4.4233 11.9652 4.70384 12.7536 5.26491C13.5419 5.81889 14.0675 6.57173 14.3303 7.52344H14.5007C14.8345 6.58594 15.4382 5.83665 16.3118 5.27557C17.1925 4.70739 18.233 4.4233 19.4332 4.4233C20.9602 4.4233 22.1996 4.9098 23.1513 5.88281C24.1101 6.84872 24.5895 8.21946 24.5895 9.99503V21H20.0618V10.8899C20.0618 9.98082 19.8203 9.29901 19.3374 8.84446C18.8544 8.38991 18.2507 8.16264 17.5263 8.16264C16.7024 8.16264 16.0597 8.42543 15.598 8.95099C15.1364 9.46946 14.9055 10.1548 14.9055 11.0071V21H10.5057V10.794C10.5057 9.99148 10.2749 9.35227 9.81321 8.87642C9.35867 8.40057 8.75852 8.16264 8.01278 8.16264C7.50852 8.16264 7.05398 8.29048 6.64915 8.54616C6.25142 8.79474 5.93537 9.14631 5.70099 9.60085C5.46662 10.0483 5.34943 10.5739 5.34943 11.1776V21H0.81108ZM38.668 14.0327V4.63636H43.2063V21H38.8491V18.0277H38.6786C38.3093 18.9865 37.695 19.7571 36.8356 20.3395C35.9833 20.9219 34.9428 21.2131 33.7141 21.2131C32.6204 21.2131 31.658 20.9645 30.8271 20.4673C29.9961 19.9702 29.3462 19.2635 28.8775 18.3473C28.4158 17.4311 28.1815 16.3338 28.1744 15.0554V4.63636H32.7127V14.2457C32.7198 15.2116 32.979 15.9751 33.4904 16.5362C34.0018 17.0973 34.6871 17.3778 35.5465 17.3778C36.0934 17.3778 36.6048 17.2536 37.0806 17.005C37.5565 16.7493 37.94 16.3729 38.2312 15.8757C38.5295 15.3786 38.6751 14.7642 38.668 14.0327ZM55.5403 4.63636V8.04545H45.6859V4.63636H55.5403ZM47.9231 0.715909H52.4615V15.9716C52.4615 16.3906 52.5254 16.7173 52.6532 16.9517C52.7811 17.179 52.9586 17.3388 53.1859 17.4311C53.4203 17.5234 53.6902 17.5696 53.9956 17.5696C54.2086 17.5696 54.4217 17.5518 54.6348 17.5163C54.8478 17.4737 55.0112 17.4418 55.1248 17.4205L55.8386 20.7976C55.6113 20.8686 55.2917 20.9503 54.8798 21.0426C54.4679 21.142 53.9672 21.2024 53.3777 21.2237C52.2839 21.2663 51.3251 21.1207 50.5012 20.7869C49.6845 20.4531 49.0488 19.9347 48.5943 19.2315C48.1397 18.5284 47.916 17.6406 47.9231 16.5682V0.715909ZM58.4966 21V4.63636H62.8965V7.49148H63.0669C63.3652 6.47585 63.8659 5.70881 64.5691 5.19034C65.2722 4.66477 66.0819 4.40199 66.998 4.40199C67.2253 4.40199 67.4703 4.41619 67.7331 4.4446C67.9959 4.47301 68.2267 4.51207 68.4256 4.56179V8.58878C68.2125 8.52486 67.9178 8.46804 67.5414 8.41832C67.165 8.36861 66.8205 8.34375 66.508 8.34375C65.8404 8.34375 65.2438 8.48935 64.7182 8.78054C64.1998 9.06463 63.7878 9.46236 63.4824 9.97372C63.1841 10.4851 63.035 11.0746 63.035 11.7422V21H58.4966ZM77.4677 21.3196C75.7844 21.3196 74.3356 20.9787 73.1211 20.2969C71.9137 19.608 70.9833 18.6349 70.3299 17.3778C69.6765 16.1136 69.3498 14.6186 69.3498 12.8928C69.3498 11.2095 69.6765 9.73224 70.3299 8.46094C70.9833 7.18963 71.9031 6.19886 73.0891 5.48864C74.2823 4.77841 75.6815 4.4233 77.2866 4.4233C78.3661 4.4233 79.3711 4.5973 80.3015 4.94531C81.239 5.28622 82.0558 5.80114 82.7518 6.49006C83.4549 7.17898 84.0018 8.04545 84.3924 9.08949C84.783 10.1264 84.9783 11.3409 84.9783 12.733V13.9794H71.1609V11.1669H80.7063C80.7063 10.5135 80.5643 9.93466 80.2802 9.4304C79.9961 8.92614 79.6019 8.53196 79.0977 8.24787C78.6005 7.95668 78.0217 7.81108 77.3612 7.81108C76.6722 7.81108 76.0614 7.97088 75.5288 8.29048C75.0032 8.60298 74.5913 9.02557 74.293 9.55824C73.9947 10.0838 73.842 10.6697 73.8349 11.3161V13.9901C73.8349 14.7997 73.984 15.4993 74.2823 16.0888C74.5877 16.6783 75.0174 17.1328 75.5714 17.4524C76.1254 17.772 76.7823 17.9318 77.5423 17.9318C78.0465 17.9318 78.5082 17.8608 78.9272 17.7188C79.3462 17.5767 79.7049 17.3636 80.0032 17.0795C80.3015 16.7955 80.5288 16.4474 80.685 16.0355L84.8825 16.3125C84.6694 17.321 84.2326 18.2017 83.5721 18.9545C82.9187 19.7003 82.0735 20.2827 81.0366 20.7017C80.0067 21.1136 78.8171 21.3196 77.4677 21.3196ZM95.3974 21.3196C93.7141 21.3196 92.2653 20.9787 91.0508 20.2969C89.8434 19.608 88.913 18.6349 88.2596 17.3778C87.6062 16.1136 87.2795 14.6186 87.2795 12.8928C87.2795 11.2095 87.6062 9.73224 88.2596 8.46094C88.913 7.18963 89.8327 6.19886 91.0188 5.48864C92.212 4.77841 93.6112 4.4233 95.2163 4.4233C96.2958 4.4233 97.3008 4.5973 98.2312 4.94531C99.1687 5.28622 99.9854 5.80114 100.681 6.49006C101.385 7.17898 101.931 8.04545 102.322 9.08949C102.713 10.1264 102.908 11.3409 102.908 12.733V13.9794H89.0906V11.1669H98.636C98.636 10.5135 98.494 9.93466 98.2099 9.4304C97.9258 8.92614 97.5316 8.53196 97.0273 8.24787C96.5302 7.95668 95.9513 7.81108 95.2908 7.81108C94.6019 7.81108 93.9911 7.97088 93.4585 8.29048C92.9329 8.60298 92.521 9.02557 92.2227 9.55824C91.9244 10.0838 91.7717 10.6697 91.7646 11.3161V13.9901C91.7646 14.7997 91.9137 15.4993 92.212 16.0888C92.5174 16.6783 92.9471 17.1328 93.5011 17.4524C94.055 17.772 94.712 17.9318 95.4719 17.9318C95.9762 17.9318 96.4379 17.8608 96.8569 17.7188C97.2759 17.5767 97.6346 17.3636 97.9329 17.0795C98.2312 16.7955 98.4585 16.4474 98.6147 16.0355L102.812 16.3125C102.599 17.321 102.162 18.2017 101.502 18.9545C100.848 19.7003 100.003 20.2827 98.9663 20.7017C97.9364 21.1136 96.7468 21.3196 95.3974 21.3196Z" fill="white"/>
</svg>
