<svg width="40" height="40" viewBox="0 0 40 40" fill="none" xmlns="http://www.w3.org/2000/svg">
<path d="M29.6227 18.7547C32.6827 23.3523 31.4362 29.5601 26.8385 32.6201C22.2409 35.6801 16.0331 34.4336 12.9731 29.8359" stroke="white" stroke-width="2"/>
<path d="M12.4245 21.7927C12.7305 22.2525 13.3513 22.3771 13.8111 22.0711C14.2708 21.7651 14.3955 21.1444 14.0895 20.6846L12.4245 21.7927ZM9.93124 18.0466L12.4245 21.7927L14.0895 20.6846L11.5962 16.9385L9.93124 18.0466ZM13.8055 29.2822L7.43382 19.7088L5.76886 20.8169L12.1406 30.3904L13.8055 29.2822ZM7.85144 17.629C8.54108 17.17 9.47224 17.3569 9.93124 18.0466L11.5962 16.9385C10.5252 15.3293 8.35249 14.893 6.74331 15.964L7.85144 17.629ZM6.74331 15.964C5.13414 17.035 4.69787 19.2077 5.76886 20.8169L7.43382 19.7088C6.97482 19.0191 7.16179 18.088 7.85144 17.629L6.74331 15.964Z" fill="white"/>
<path d="M17.4194 18.468L12.7099 11.3919C11.9449 10.2425 10.393 9.9309 9.24354 10.6959V10.6959C8.09413 11.4609 7.78251 13.0128 8.54751 14.1622L13.257 21.2383" stroke="white" stroke-width="2"/>
<path d="M24.3521 19.8604L17.9804 10.287C17.2154 9.13755 15.6635 8.82592 14.5141 9.59092V9.59092C13.3646 10.3559 13.053 11.9079 13.818 13.0573L17.5027 18.5935" stroke="white" stroke-width="2" stroke-linecap="round"/>
<path d="M29.6226 18.7547L26.5752 14.1761C25.8102 13.0267 24.2583 12.7151 23.1089 13.4801V13.4801C21.9595 14.2451 21.6479 15.797 22.4129 16.9464L24.0499 19.406" stroke="white" stroke-width="2" stroke-linejoin="round"/>
<path d="M27.1335 9.60054L28.2444 7.65994" stroke="white" stroke-width="2" stroke-linecap="round"/>
<path d="M22.9738 8.76501L23.8091 4.60539" stroke="white" stroke-width="2" stroke-linecap="round"/>
<path d="M19.6118 7.32317L19.4258 5.27002" stroke="white" stroke-width="2" stroke-linecap="round"/>
</svg>
