<svg width="246" height="399" viewBox="0 0 246 399" fill="none" xmlns="http://www.w3.org/2000/svg">
<path fill-rule="evenodd" clip-rule="evenodd" d="M176.071 278.9C189.057 269.563 213.593 251.924 226.541 233C239.541 214 247.659 192.9 245.041 170C243.041 152.5 234.541 134.5 215.541 109C204.666 94.4048 186.752 75.2505 168.389 55.6162C150.265 36.2378 131.703 16.3916 119.041 0H108.041V299.806C90.6458 286.705 61.4261 287.274 35.9857 302.894C5.08869 321.864 -8.53338 355.851 5.56037 378.806C19.6541 401.761 56.1263 404.991 87.0238 386.021C110.81 371.416 124.358 347.912 122.903 327.393V86.6641C142.221 95.375 170.881 113.635 187.041 128C188.296 129.116 189.536 130.21 190.757 131.288C211.427 149.537 226.834 163.138 223.541 197C220.542 227.85 189.268 255.763 175.034 268.467L175.009 268.489C174.084 269.314 173.232 270.075 172.465 270.768C171.269 271.847 170.279 272.762 169.541 273.5L174.541 280L176.071 278.9Z" fill="black"/>
</svg>
