<svg width="245" height="399" viewBox="0 0 245 399" fill="none" xmlns="http://www.w3.org/2000/svg">
<path fill-rule="evenodd" clip-rule="evenodd" d="M230.727 172.182C236.243 165.345 240.432 158.13 242.403 152.5C245.903 142.5 244.903 126.5 239.403 114C234.152 102.066 224.602 90.5 213.403 81C208.289 76.6616 200.886 71.1479 192.302 64.7559L192.249 64.7163L192.227 64.7002C169.16 47.5229 137.607 24.0264 119.041 0H108.041V299.806C90.6458 286.705 61.4261 287.274 35.9857 302.894C5.08869 321.864 -8.53338 355.851 5.56037 378.806C19.6541 401.761 56.1263 404.991 87.0238 386.021C110.81 371.416 124.358 347.912 122.903 327.393V138.205C142.306 146.163 184.661 165.121 202.903 179C225.903 196.5 225.403 209 222.903 222.5C220.403 236 211.403 246 202.903 253.5C196.103 259.5 178.403 271.667 170.403 277L175.403 282C183.903 277.167 203.403 265.7 213.403 258.5C225.903 249.5 238.903 232.5 242.403 222.5C245.903 212.5 246.403 195 239.403 184C236.592 179.583 233.7 175.729 230.727 172.182ZM122.903 90.3438C151.916 110.306 210.54 151.137 216.903 157.5L218.62 159.218L219.344 159.945C219.748 160.352 220.151 160.757 220.553 161.164C221.49 158.764 222.263 155.961 222.903 152.5C225.403 139 225.903 126.5 202.903 109C185.778 95.9697 144.054 77.5981 122.903 68.7993V90.3438Z" fill="black"/>
</svg>
